# xmcd
#
# Track frame offsets:
#	150
#	21636
#	48267
#	81202
#	116751
#	148824
#	175943
#	192435
#	226663
#
# Disc length: 3432 seconds
#
# Revision: 1
# Processed by: cddbd v1.5.1PL2 Copyright (c) Steve Scherf et al.
# Submitted via: audiograbber 1.83.01
#
DISCID=7a0d6609
DTITLE=Lower Case Blues - how bad does it get?
DYEAR=2004
DGENRE=Rock
TTITLE0=how bad does it get
TTITLE1=holdin on
TTITLE2=setback
TTITLE3=back to my old ways 1
TTITLE4=back porch blues
TTITLE5=new make a man cry
TTITLE6=let me be your man
TTITLE7=Love to you
TTITLE8=waLKIN THE DOG
EXTD=
EXTT0=
EXTT1=
EXTT2=
EXTT3=
EXTT4=
EXTT5=
EXTT6=
EXTT7=
EXTT8=
PLAYORDER=
